Andre Cluytens, conductor
Emil Gilels, piano

Ravel:  Daphnis et Chloe
Fragments symphoniques ΓÇô 2e serie

Mussorgsky:  Pictures at an exhibition
(Orcestration: Maurice Ravel)
Orchestre National de la RTF
Filmed at the RTF, Paris, 13 August 1960

Tchaikovsky:  Piano Concerto No. 1 in B flat minor, Op. 23
Orchestre National de la RTF
Filmed at the Theatre des Champs-Elysees, Paris, 19 June 1959

BONUS
Prokofiev:  Piano Sonata No. 3 in A minor, Op. 28
Filmed in London, 19 February 1959
Emil Gilels, piano

DURATION: 87:32


Format                           : Matroska
Format version                   : Version 2
Overall bit rate                 : 1 805 Kbps
Encoded date                     : UTC 2013-05-26 10:39:16
Writing application              : mkvmerge v6.1.0 ('Old Devil') built on Mar  2 2013 14:32:37
Writing library                  : libebml v1.3.0 + libmatroska v1.4.0

Video
ID                               : 1
Format                           : AVC
Format/Info                      : Advanced Video Codec
Format profile                   : High@L3.0
Format settings, CABAC           : Yes
Format settings, ReFrames        : 4 frames
Format settings, GOP             : M=4, N=26
Codec ID                         : V_MPEG4/ISO/AVC
Bit rate                         : 1 547 Kbps
Width                            : 656 pixels
Height                           : 480 pixels
Display aspect ratio             : 4:3
Frame rate                       : 29.970 fps
Color space                      : YUV
Chroma subsampling               : 4:2:0
Bit depth                        : 8 bits
Scan type                        : Progressive
Bits/(Pixel*Frame)               : 0.164
Stream size                      : 170 MiB (84%)
Writing library                  : x264 core 130 r2273 b3065e6


Audio
ID                               : 2
Format                           : AC-3
Format/Info                      : Audio Coding 3
Mode extension                   : CM (complete main)
Codec ID                         : A_AC3
Duration                         : 15mn 40s
Bit rate mode                    : Constant
Bit rate                         : 256 Kbps
Channel(s)                       : 2 channels
Channel positions                : Front: L R
Sampling rate                    : 48.0 KHz
Bit depth                        : 16 bits
Compression mode                 : Lossy
Stream size                      : 28.7 MiB (14%)
